<svg width="89" height="32" viewBox="0 0 89 32" fill="none" xmlns="http://www.w3.org/2000/svg">
<g clip-path="url(#clip0_180_2114)">
<mask id="mask0_180_2114" style="mask-type:luminance" maskUnits="userSpaceOnUse" x="0" y="0" width="89" height="32">
<path d="M88.6175 0H0V32H88.6175V0Z" fill="white"/>
</mask>
<g mask="url(#mask0_180_2114)">
<path d="M17.8681 30.754C17.9535 31.2697 17.7384 31.5717 17.2227 31.5717H12.5345C12.1042 31.5717 11.8037 31.3993 11.761 30.8837L11.288 27.2283H6.59977L6.12682 30.8837C6.0841 31.3993 5.78203 31.5717 5.35333 31.5717H0.663554C0.147893 31.5717 -0.0672204 31.2712 0.0182146 30.754L6.21226 1.07601C6.29769 0.645777 6.59977 0.430664 7.02999 0.430664H10.8578C11.288 0.430664 11.5886 0.645777 11.6755 1.07601L17.8681 30.754ZM7.20086 22.5385H10.6854L9.0072 9.67748H8.83481L7.20086 22.5385Z" fill="black"/>
<path d="M20.8703 31.5702C20.3974 31.5702 20.1396 31.3124 20.1396 30.8394V1.16144C20.1396 0.688495 20.3974 0.430664 20.8703 0.430664H25.2582C25.7311 0.430664 25.9888 0.688495 25.9888 1.16144V26.6669H29.6442C30.1172 26.6669 30.375 26.9247 30.375 27.3976V30.8379C30.375 31.3109 30.1172 31.5687 29.6442 31.5687H20.8703V31.5702Z" fill="black"/>
<path d="M33.5198 31.5702C33.0469 31.5702 32.7891 31.3124 32.7891 30.8394V1.16144C32.7891 0.688495 33.0469 0.430664 33.5198 0.430664H37.9075C38.3805 0.430664 38.6383 0.688495 38.6383 1.16144V26.6669H42.2937C42.7666 26.6669 43.0245 26.9247 43.0245 27.3976V30.8379C43.0245 31.3109 42.7666 31.5687 42.2937 31.5687H33.5198V31.5702Z" fill="black"/>
<path d="M45.9671 9.27123C45.4942 9.27123 45.2363 9.0134 45.2363 8.54045V0.730775C45.2363 0.257831 45.4942 0 45.9671 0H50.1397C50.6126 0 50.8705 0.257831 50.8705 0.730775V8.53893C50.8705 9.01187 50.6126 9.2697 50.1397 9.2697H45.9671V9.27123Z" fill="#E94E19"/>
<path d="M45.9671 31.5697C45.4942 31.5697 45.2363 31.3118 45.2363 30.8389V13.8724C45.2363 13.3995 45.4942 13.1416 45.9671 13.1416H50.1824C50.6126 13.1416 50.8705 13.3995 50.8705 13.8724V30.8389C50.8705 31.3118 50.6126 31.5697 50.1824 31.5697H45.9671Z" fill="black"/>
<path d="M53.585 25.0327V6.96778C53.585 3.26814 55.0038 0.0429688 61.6708 0.0429688C68.3378 0.0429688 69.7566 3.26814 69.7566 6.96778V8.53917C69.7566 9.01212 69.4988 9.26995 69.0258 9.26995H64.6381C64.1652 9.26995 63.9074 9.01212 63.9074 8.53917V7.44072C63.9074 5.76406 63.2193 4.94633 61.6708 4.94633C60.0369 4.94633 59.477 5.76406 59.477 7.44072V24.6024C59.477 26.2364 60.0369 27.0968 61.6708 27.0968C63.2193 27.0968 63.9074 26.2364 63.9074 24.6024V18.088H62.7464C62.2734 18.088 62.0156 17.8302 62.0156 17.3572V13.8727C62.0156 13.3998 62.2734 13.1419 62.7464 13.1419H69.0258C69.4988 13.1419 69.7566 13.3998 69.7566 13.8727V25.0327C69.7566 28.7308 68.3378 32.0002 61.6708 32.0002C55.0054 32.0002 53.585 28.7308 53.585 25.0327Z" fill="black"/>
<path d="M72.4463 25.0327V6.96778C72.4463 3.26814 73.8651 0.0429688 80.5321 0.0429688C87.1991 0.0429688 88.6179 3.26814 88.6179 6.96778V25.0327C88.6179 28.7308 87.1991 32.0002 80.5321 32.0002C73.8651 32.0002 72.4463 28.7308 72.4463 25.0327ZM82.7686 24.6024V7.44072C82.7686 5.76406 82.166 4.94633 80.5321 4.94633C78.8981 4.94633 78.3382 5.76406 78.3382 7.44072V24.6024C78.3382 26.2364 78.8981 27.0968 80.5321 27.0968C82.166 27.0968 82.7686 26.2364 82.7686 24.6024Z" fill="black"/>
</g>
</g>
<defs>
<clipPath id="clip0_180_2114">
<rect width="89" height="32" fill="white"/>
</clipPath>
</defs>
</svg>
