<svg class="logo hidden md:block" width="180" height="48" viewBox="0 0 180 48" fill="none" xmlns="http://www.w3.org/2000/svg">
<g clip-path="url(#clip0_515_104)">
<path fill-rule="evenodd" clip-rule="evenodd" d="M138.147 26.0923L126.458 26.1383L125.307 35.342H132.44L132.854 31.9366H134.373C137.87 31.9366 138.653 32.7649 141.506 39.4836L144.727 47.0306H152.504L144.957 30.326C143.531 28.1171 141.46 26.0463 138.147 26.0923Z" fill="#AAAAA9"></path>
<path fill-rule="evenodd" clip-rule="evenodd" d="M139.987 9.80188H128.483L126.734 23.9295H133.867L134.879 16.0603H138.377C141.92 16.0603 143.991 17.8551 143.991 20.8002C143.991 22.2268 143.439 23.6533 142.196 24.6657C145.832 26.0923 147.12 29.4516 147.212 29.4056C150.065 27.6109 151.4 24.3896 151.4 20.9843C151.308 16.4285 148.501 9.80188 139.987 9.80188Z" fill="#D0043C"></path>
<path fill-rule="evenodd" clip-rule="evenodd" d="M0 35.388H7.0868L8.23725 26.1383H1.19647L0 35.388Z" fill="#AAAAA9"></path>
<path fill-rule="evenodd" clip-rule="evenodd" d="M8.78948 21.5365C8.92753 20.34 9.38771 17.9471 10.7683 16.5205C11.9187 15.3701 13.4833 14.9559 15.094 14.9559H19.4197L20.1099 9.29567C18.9595 9.15762 17.8551 9.06558 16.6586 9.06558C11.3205 9.06558 10.216 11.9187 8.88151 14.5417L9.47975 9.75585H3.17526L1.38055 23.8834H8.46735L8.78948 21.5365Z" fill="#D0043C"></path>
<path fill-rule="evenodd" clip-rule="evenodd" d="M28.3011 31.0622C26.7365 31.0622 24.6197 30.6481 24.9418 28.025C25.0338 27.1507 25.31 26.5985 25.7241 26.0923H18.2692C18.1311 26.5985 17.9931 27.0587 17.901 27.6569C17.2568 32.8109 19.6497 35.9862 26.5524 35.9862C30.1419 35.9862 32.4888 35.388 34.7437 32.2127C35.0198 32.8109 35.2039 33.7313 35.8941 34.3756C36.7685 35.1579 37.6888 35.2959 38.9773 35.2959H42.4747L43.119 30.2799C42.2446 30.326 41.7845 30.0959 41.6004 29.9578C41.4163 29.8198 41.3243 29.4516 41.4163 28.3932L41.7384 26.0923H34.8817C34.3755 29.1755 32.3507 31.0622 28.3011 31.0622Z" fill="#AAAAA9"></path>
<path fill-rule="evenodd" clip-rule="evenodd" d="M56.0961 9.75586H49.0093L47.2606 23.9295H54.3014L56.0961 9.75586Z" fill="#D0043C"></path>
<path fill-rule="evenodd" clip-rule="evenodd" d="M57.2926 0.0460205H50.2518L49.4235 6.44254H56.5103L57.2926 0.0460205Z" fill="#D0043C"></path>
<path fill-rule="evenodd" clip-rule="evenodd" d="M45.7881 35.388H52.8749L54.0253 26.1383H46.9846L45.7881 35.388Z" fill="#AAAAA9"></path>
<path fill-rule="evenodd" clip-rule="evenodd" d="M69.1192 0H62.0324L59.0413 23.9294H66.082L69.1192 0Z" fill="#D0043C"></path>
<path fill-rule="evenodd" clip-rule="evenodd" d="M57.5687 35.388H64.6555L65.852 26.1383H58.7652L57.5687 35.388Z" fill="#AAAAA9"></path>
<path fill-rule="evenodd" clip-rule="evenodd" d="M76.7123 22.0887C77.2185 18.0391 78.7831 14.3117 83.9832 14.3117C89.1832 14.3117 88.9071 16.6586 88.9991 18.5913H95.8098C96.4541 13.6214 93.9691 9.1116 85.0876 9.1116C74.8255 9.1116 70.6839 14.8639 69.7175 22.5029C69.6715 23.0091 69.6255 23.4693 69.5795 23.9755H76.5742C76.5742 23.3312 76.6202 22.733 76.7123 22.0887Z" fill="#D0043C"></path>
<path fill-rule="evenodd" clip-rule="evenodd" d="M81.5442 31.0162C78.1388 31.0162 76.7123 29.4056 76.4822 26.1383H69.4874C69.7635 32.8109 73.8131 36.0322 81.084 36.0322C91.346 36.0322 94.4293 30.1419 94.9815 26.1383H87.9867C87.3885 28.7613 87.2504 31.0162 81.5442 31.0162Z" fill="#AAAAA9"></path>
<path fill-rule="evenodd" clip-rule="evenodd" d="M107.544 31.0622C105.98 31.0622 103.863 30.6481 104.185 28.025C104.277 27.1507 104.553 26.5985 104.967 26.0923H97.3284C97.1903 26.5985 97.0523 27.0587 96.9602 27.6569C96.316 32.8109 98.7089 35.9862 105.612 35.9862C109.201 35.9862 111.548 35.388 113.803 32.2127C114.079 32.8109 114.263 33.7313 114.953 34.3756C115.828 35.1579 116.748 35.2959 118.037 35.2959H121.534L122.178 30.2799C121.304 30.326 120.844 30.0959 120.66 29.9578C120.476 29.8198 120.383 29.4516 120.476 28.3932L120.798 26.0923H114.171C113.619 29.1755 111.594 31.0622 107.544 31.0622Z" fill="#AAAAA9"></path>
<path fill-rule="evenodd" clip-rule="evenodd" d="M172.798 19.9719H161.202C161.892 17.3949 162.582 14.2656 168.334 14.2656C172.89 14.2656 173.166 17.0267 172.798 19.9719ZM160.419 24.7578C159.913 28.8074 161.11 30.8782 166.172 30.8782C170.543 30.8782 171.049 29.2676 171.694 27.795H178.596C178.412 28.3932 178.182 29.0375 177.906 29.7277C176.572 32.6729 173.534 36.0322 164.975 36.0322C155.863 36.0322 152.55 31.5685 153.655 22.687C154.667 14.5417 158.717 9.06558 168.657 9.06558C180.391 9.06558 180.805 17.3489 179.471 24.7118H160.419V24.7578Z" fill="#D0043C"></path>
<path fill-rule="evenodd" clip-rule="evenodd" d="M33.1791 9.06558C24.2516 9.06558 21.0763 12.3329 20.386 16.7046L20.248 17.809H26.6905C27.1507 15.7382 27.1967 13.8515 32.2127 13.8515C35.572 13.8515 36.3083 15.094 36.0782 16.8887C35.9402 18.0391 35.572 19.0515 35.1119 19.3736C34.8358 19.5577 34.3756 19.6498 33.7773 19.7878C31.0162 20.294 25.31 20.202 22.3648 21.3984C21.1684 21.9507 20.0639 22.733 19.2356 23.9294H41.9686L42.7509 17.625C43.5792 11.3665 40.45 9.06558 33.1791 9.06558Z" fill="#D0043C"></path>
<path fill-rule="evenodd" clip-rule="evenodd" d="M112.238 9.06558C103.311 9.06558 100.136 12.3329 99.4453 16.7046L99.3072 17.809H105.75C106.21 15.7382 106.256 13.8515 111.272 13.8515C114.631 13.8515 115.368 15.094 115.137 16.8887C114.999 18.0391 114.631 19.0055 114.171 19.3736C113.941 19.5117 113.527 19.6498 113.021 19.7418C110.306 20.248 104.415 20.202 101.47 21.3524C100.274 21.9046 99.1691 22.687 98.3408 23.8834H121.074L121.856 17.5789C122.638 11.3665 119.509 9.06558 112.238 9.06558Z" fill="#D0043C"></path>
</g>
<defs>
<clipPath id="clip0_515_104">
<rect width="180" height="47.0306" fill="white"></rect>
</clipPath>
</defs>
</svg>